  0
SECTION
  2
HEADER
  9
$ACADVER
  1
AC1009
  9
$INSBASE
 10
0.0
 20
0.0
 30
0.0
  9
$EXTMIN
 10
0.0
 20
0.0
 30
0.0
  9
$EXTMAX
 10
0.0
 20
0.0
 30
0.0
  0
ENDSEC
  0
SECTION
  2
TABLES
  0
TABLE
  2
VPORT
 70
0
  0
ENDTAB
  0
TABLE
  2
LTYPE
 70
1
  0
LTYPE
  2
CONTINUOUS
 70
0
  3
Solid line
 72
65
 73
0
 40
0.0
  0
ENDTAB
  0
TABLE
  2
LAYER
 70
1
  0
LAYER
  2
0
 70
64
 62
7
  6
continuous
  0
ENDTAB
  0
TABLE
  2
STYLE
 70
1
  0
STYLE
  2
STANDARD
 70
0
 40
0
 41
1.0
 50
0.0
 71
0
 42
1
 3
ARIAL.TTF
 4

  0
ENDTAB
  0
TABLE
  2
VIEW
 70
0
  0
ENDTAB
  0
ENDSEC
  0
SECTION
  2
BLOCKS
  0
BLOCK
  8
0
  2
SKETCH
 70
0
 10
0.0
 20
0.0
 30
0.0
  3
SKETCH
  0
POLYLINE
  8
0
 62
7
 70
1
 66
1
 10
0.0
 20
0.0
 30
0.0
  0
VERTEX
  8
0
 10
-61.8742430185
 20
13.3730656627
 30
0.0
 42
0.323161919627
  0
VERTEX
  8
0
 10
-62.7707518765
 20
12.1308351612
 30
0.0
  0
VERTEX
  8
0
 10
-62.7707518765
 20
-14.925935
 30
0.0
  0
VERTEX
  8
0
 10
-52.630928
 20
-22.957275
 30
0.0
  0
VERTEX
  8
0
 10
52.466747
 20
-22.957275
 30
0.0
  0
VERTEX
  8
0
 10
62.8929892599
 20
-14.882794
 30
0.0
  0
VERTEX
  8
0
 10
62.8929892599
 20
12.1254423495
 30
0.0
 42
0.327812046847
  0
VERTEX
  8
0
 10
61.8664969053
 20
13.5228661742
 30
0.0
  0
VERTEX
  8
0
 10
58.8648696496
 20
14.4635727514
 30
0.0
 42
0.413065070028
  0
VERTEX
  8
0
 10
57.9686068832
 20
13.9972725112
 30
0.0
  0
VERTEX
  8
0
 10
57.0618914161
 20
11.1433838013
 30
0.0
  0
VERTEX
  8
0
 10
35.7725005513
 20
17.9072845504
 30
0.0
  0
VERTEX
  8
0
 10
36.5850014937
 20
20.464632859
 30
0.0
 42
0.507469914823
  0
VERTEX
  8
0
 10
35.5887245695
 20
21.8265131981
 30
0.0
  0
VERTEX
  8
0
 10
29.187662
 20
21.8265131981
 30
0.0
 42
0.414213562373
  0
VERTEX
  8
0
 10
24.8814888019
 20
17.52034
 30
0.0
  0
VERTEX
  8
0
 10
24.8814888019
 20
15.8173588731
 30
0.0
 42
-0.414213562373
  0
VERTEX
  8
0
 10
23.9696721827
 20
14.9055422538
 30
0.0
  0
VERTEX
  8
0
 10
12.547494
 20
14.9055422538
 30
0.0
  0
VERTEX
  8
0
 10
9.018118
 20
18.3747947449
 30
0.0
  0
VERTEX
  8
0
 10
-2.68718056891
 20
18.3747947449
 30
0.0
 42
-0.414213562373
  0
VERTEX
  8
0
 10
-3.97208074048
 20
19.6596949164
 30
0.0
  0
VERTEX
  8
0
 10
-3.97208074048
 20
20.8101814738
 30
0.0
 42
0.414213562373
  0
VERTEX
  8
0
 10
-4.96671543308
 20
21.8048161664
 30
0.0
  0
VERTEX
  8
0
 10
-17.5782597398
 20
21.8048161664
 30
0.0
 42
0.414213562373
  0
VERTEX
  8
0
 10
-18.7266606145
 20
20.6564152917
 30
0.0
  0
VERTEX
  8
0
 10
-18.7266606145
 20
19.9720372594
 30
0.0
 42
-0.414213562373
  0
VERTEX
  8
0
 10
-20.271232919
 20
18.4274649549
 30
0.0
  0
VERTEX
  8
0
 10
-24.2724243928
 20
18.4274649549
 30
0.0
 42
-0.414213562373
  0
VERTEX
  8
0
 10
-25.597807532
 20
19.7528480941
 30
0.0
  0
VERTEX
  8
0
 10
-25.597807532
 20
20.5332359532
 30
0.0
 42
0.414213562373
  0
VERTEX
  8
0
 10
-26.9177503234
 20
21.8531787446
 30
0.0
  0
VERTEX
  8
0
 10
-35.5773537834
 20
21.8531787446
 30
0.0
 42
0.511530803852
  0
VERTEX
  8
0
 10
-36.4624280303
 20
20.6267923954
 30
0.0
  0
VERTEX
  8
0
 10
-35.6010846319
 20
18.0321430816
 30
0.0
  0
VERTEX
  8
0
 10
-56.8173877756
 20
10.9889860147
 30
0.0
  0
VERTEX
  8
0
 10
-57.7020482478
 20
13.6538740161
 30
0.0
 42
0.414213562373
  0
VERTEX
  8
0
 10
-59.0268523169
 20
14.3183113922
 30
0.0
  0
SEQEND
  8
0
  0
ARC
  8
0
 62
7
 10
-62.4105502694
 20
-11.0349526976
 30
0.0
 40
2.60360516945
 50
-97.9522198191
 51
97.9522198191
  0
POLYLINE
  8
0
 62
7
 70
0
 66
1
 10
0.0
 20
0.0
 30
0.0
  0
VERTEX
  8
0
 10
-2.53209050069
 20
-22.957275
 30
0.0
  0
VERTEX
  8
0
 10
-2.53209050069
 20
-21.00747037
 30
0.0
 42
-0.985520532618
  0
VERTEX
  8
0
 10
2.47426827329
 20
-21.0636737069
 30
0.0
  0
VERTEX
  8
0
 10
2.47426827329
 20
-22.957275
 30
0.0
  0
SEQEND
  8
0
  0
ARC
  8
0
 62
7
 10
62.5771310686
 20
-10.8946645284
 30
0.0
 40
2.61496976236
 50
83.0623905227
 51
-83.0623905227
  0
CIRCLE
  8
0
 62
7
 10
-5.249803
 20
-7.594295
 30
0.0
 40
0.883147
  0
CIRCLE
  8
0
 62
7
 10
-30.677329
 20
14.8723
 30
0.0
 40
2.197532
  0
CIRCLE
  8
0
 62
7
 10
-58.530813
 20
7.434758
 30
0.0
 40
1.065495
  0
CIRCLE
  8
0
 62
7
 10
30.791543
 20
14.811128
 30
0.0
 40
2.264099
  0
CIRCLE
  8
0
 62
7
 10
58.613896
 20
7.445013
 30
0.0
 40
1.132104
  0
CIRCLE
  8
0
 62
7
 10
40.621992
 20
7.319894
 30
0.0
 40
3.724369
  0
CIRCLE
  8
0
 62
7
 10
27.327447
 20
-2.928599
 30
0.0
 40
3.65779
  0
CIRCLE
  8
0
 62
7
 10
54.204697
 20
-3.041301
 30
0.0
 40
3.592145
  0
CIRCLE
  8
0
 62
7
 10
40.923678
 20
-13.473311
 30
0.0
 40
3.654112
  0
CIRCLE
  8
0
 62
7
 10
2.767258
 20
-7.350549
 30
0.0
 40
3.010201
  0
CIRCLE
  8
0
 62
7
 10
-12.623629
 20
-7.40571
 30
0.0
 40
2.946571
  0
CIRCLE
  8
0
 62
7
 10
-40.502707
 20
6.047889
 30
0.0
 40
2.897536
  0
CIRCLE
  8
0
 62
7
 10
-49.627003
 20
-3.001596
 30
0.0
 40
3.004379
  0
CIRCLE
  8
0
 62
7
 10
-40.813437
 20
-11.923943
 30
0.0
 40
2.897228
  0
CIRCLE
  8
0
 62
7
 10
-31.79364
 20
-2.97792
 30
0.0
 40
2.913846
  0
ENDBLK
  0
ENDSEC
  0
SECTION
  2
ENTITIES
  0
INSERT
  2
SKETCH
  8
0
 62
7
 10
0.0
 20
0.0
 30
0.0
  0
ENDSEC
  0
EOF
